<svg xmlns="http://www.w3.org/2000/svg" width="200" height="140" viewBox="0 0 200 140" fill="none">
  <defs>
    <pattern id="clover" x="0" y="0" width="32" height="32" patternUnits="userSpaceOnUse">
      <path d="M 16 4 C 22 4 22 12 16 16 C 10 12 10 4 16 4 Z
               M 28 16 C 28 22 20 22 16 16 C 20 10 28 10 28 16 Z
               M 16 28 C 10 28 10 20 16 16 C 22 20 22 28 16 28 Z
               M 4 16 C 4 10 12 10 16 16 C 12 22 4 22 4 16 Z"
            stroke="#C8C0B0" stroke-width="1" fill="none" stroke-linejoin="round"/>
      <circle cx="16" cy="16" r="0.8" fill="#C8C0B0"/>
    </pattern>
  </defs>
  <rect x="0.5" y="0.5" width="199" height="139" fill="#F5F0E8" stroke="#9E9588" stroke-width="1"/>
  <rect x="6" y="6" width="188" height="128" fill="url(#clover)"/>
</svg>
